<?xml version="1.0" encoding="UTF-8" standalone="no"?>
<!DOCTYPE svg PUBLIC "-//W3C//DTD SVG 1.1//EN" "http://www.w3.org/Graphics/SVG/1.1/DTD/svg11.dtd">
<svg width="100%" height="100%" viewBox="0 0 3000 3000" version="1.1" xmlns="http://www.w3.org/2000/svg" xmlns:xlink="http://www.w3.org/1999/xlink" xml:space="preserve" xmlns:serif="http://www.serif.com/" style="fill-rule:evenodd;clip-rule:evenodd;stroke-linejoin:round;stroke-miterlimit:2;">
    <g transform="matrix(1,0,0,1,0,-1279.46)">
        <g id="icon" transform="matrix(3.21522,0,0,3.21522,-1768.37,4655.44)">
            <rect x="550" y="-1050" width="933.062" height="933.062" style="fill:none;"/>
            <clipPath id="_clip1">
                <rect x="550" y="-1050" width="933.062" height="933.062"/>
            </clipPath>
            <g clip-path="url(#_clip1)">
                <g transform="matrix(1.05097,0,0,1.04479,-70.0727,-1110.81)">
                    <path d="M1477.81,146.236C1477.81,97.65 1438.6,58.203 1390.29,58.203L677.515,58.203C629.214,58.203 590,97.65 590,146.236L590,863.232C590,911.819 629.214,951.265 677.515,951.265L1390.29,951.265C1438.6,951.265 1477.81,911.819 1477.81,863.232L1477.81,146.236Z" style="fill:rgb(100,37,199);"/>
                </g>
                <g id="dancing_nodes" transform="matrix(2.64594,0,0,2.64594,-1367.94,-4381.02)">
                    <g id="lines">
                        <g transform="matrix(0.503177,0,0,1,116.075,378.017)">
                            <path d="M1280,1025.11L1820,1025.11C1821.39,1025.11 1822.52,1023.71 1822.52,1021.98C1822.52,1020.26 1821.39,1018.86 1820,1018.86L1280,1018.86C1278.61,1018.86 1277.48,1020.26 1277.48,1021.98C1277.48,1023.71 1278.61,1025.11 1280,1025.11Z" style="fill:rgb(166,110,255);"/>
                        </g>
                        <path d="M902.18,1402.24L922.721,1382.24C923.325,1381.65 923.666,1380.84 923.666,1380C923.666,1379.16 923.325,1378.35 922.721,1377.76L904.512,1360.03C904.512,1360.03 923.274,1342.27 923.274,1342.27C924.526,1341.08 924.58,1339.1 923.394,1337.85C922.209,1336.6 920.229,1336.55 918.977,1337.73L897.852,1357.73C897.234,1358.32 896.881,1359.13 896.875,1359.98C896.869,1360.83 897.21,1361.64 897.82,1362.24L916.061,1380C916.061,1380 897.82,1397.76 897.82,1397.76C896.584,1398.96 896.558,1400.94 897.761,1402.18C898.964,1403.42 900.944,1403.44 902.18,1402.24Z" style="fill:rgb(166,110,255);"/>
                        <path d="M945.325,1399.44L938.407,1361.28C938.407,1361.28 961.952,1342.44 961.952,1342.44C962.693,1341.85 963.125,1340.95 963.125,1340C963.125,1339.05 962.693,1338.15 961.952,1337.56L936.952,1317.56C935.605,1316.48 933.637,1316.7 932.56,1318.05C931.482,1319.39 931.701,1321.36 933.048,1322.44L954.998,1340C954.998,1340 933.048,1357.56 933.048,1357.56C932.151,1358.28 931.72,1359.43 931.925,1360.56L939.175,1400.56C939.483,1402.25 941.111,1403.38 942.808,1403.08C944.505,1402.77 945.633,1401.14 945.325,1399.44Z" style="fill:rgb(166,110,255);"/>
                        <path d="M973.125,1400L973.125,1373.12C973.125,1373.12 1010,1373.12 1010,1373.12C1011.26,1373.12 1012.4,1372.36 1012.89,1371.2C1013.37,1370.03 1013.1,1368.68 1012.21,1367.79L984.419,1340C984.419,1340 1002.21,1322.21 1002.21,1322.21C1003.43,1320.99 1003.43,1319.01 1002.21,1317.79C1000.99,1316.57 999.01,1316.57 997.79,1317.79L977.79,1337.79C976.57,1339.01 976.57,1340.99 977.79,1342.21L1002.46,1366.88C1002.46,1366.88 970,1366.88 970,1366.88C968.274,1366.88 966.875,1368.27 966.875,1370L966.875,1400C966.875,1401.73 968.275,1403.12 970,1403.12C971.725,1403.12 973.125,1401.73 973.125,1400Z" style="fill:rgb(166,110,255);"/>
                        <path d="M927.035,1399.01L917.035,1429.01C916.718,1429.96 916.878,1431.01 917.465,1431.83C918.052,1432.64 918.995,1433.12 920,1433.12L945.531,1433.12C945.531,1433.12 927.065,1483.65 927.065,1483.65C926.473,1485.27 927.307,1487.07 928.927,1487.66C930.547,1488.25 932.343,1487.42 932.935,1485.8L952.935,1431.07C953.285,1430.11 953.146,1429.05 952.561,1428.21C951.976,1427.37 951.02,1426.88 950,1426.88L924.336,1426.88C924.336,1426.88 932.965,1400.99 932.965,1400.99C933.51,1399.35 932.624,1397.58 930.988,1397.04C929.352,1396.49 927.581,1397.38 927.035,1399.01Z" style="fill:rgb(166,110,255);"/>
                        <path d="M957.205,1401.4L976.506,1440C976.506,1440 967.205,1458.6 967.205,1458.6C966.603,1459.81 966.839,1461.26 967.79,1462.21L987.79,1482.21C989.01,1483.43 990.99,1483.43 992.21,1482.21C993.429,1480.99 993.429,1479.01 992.21,1477.79L973.802,1459.38C973.802,1459.38 982.795,1441.4 982.795,1441.4C983.235,1440.52 983.235,1439.48 982.795,1438.6L962.795,1398.6C962.024,1397.06 960.145,1396.43 958.602,1397.2C957.06,1397.98 956.434,1399.86 957.205,1401.4Z" style="fill:rgb(166,110,255);"/>
                        <path d="M972.966,1402.37L1006.11,1430.79C1006.11,1430.79 997.205,1448.6 997.205,1448.6C996.659,1449.69 996.799,1451 997.562,1451.95C998.326,1452.91 999.574,1453.33 1000.76,1453.03L1040.76,1443.03C1042.43,1442.61 1043.45,1440.91 1043.03,1439.24C1042.61,1437.57 1040.91,1436.55 1039.24,1436.97L1005.83,1445.32C1005.83,1445.32 1012.8,1431.4 1012.8,1431.4C1013.44,1430.12 1013.12,1428.56 1012.03,1427.63L977.034,1397.63C975.724,1396.51 973.75,1396.66 972.627,1397.97C971.505,1399.28 971.657,1401.25 972.966,1402.37Z" style="fill:rgb(166,110,255);"/>
                    </g>
                    <g id="nodules">
                        <g transform="matrix(0.451224,0,0,0.415192,580.472,748.2)">
                            <ellipse cx="935.201" cy="1369.67" rx="20.683" ry="22.478" style="fill:rgb(162,230,52);"/>
                        </g>
                        <g transform="matrix(0.451224,0,0,0.415192,508.681,748.2)">
                            <ellipse cx="935.201" cy="1369.67" rx="20.683" ry="22.478" style="fill:rgb(250,203,19);"/>
                        </g>
                        <g transform="matrix(0.451224,0,0,0.415192,502.264,770.658)">
                            <ellipse cx="935.201" cy="1369.67" rx="20.683" ry="22.478" style="fill:rgb(56,189,248);"/>
                        </g>
                        <g transform="matrix(0.451224,0,0,0.415192,507.347,921.992)">
                            <ellipse cx="935.201" cy="1369.67" rx="20.683" ry="22.478" style="fill:rgb(231,121,248);"/>
                        </g>
                        <g transform="matrix(0.451224,0,0,0.415192,568.681,915.658)">
                            <ellipse cx="935.201" cy="1369.67" rx="20.683" ry="22.478" style="fill:rgb(48,212,191);"/>
                        </g>
                        <g transform="matrix(0.451224,0,0,0.415192,622.347,871.992)">
                            <ellipse cx="935.201" cy="1369.67" rx="20.683" ry="22.478" style="fill:rgb(74,222,128);"/>
                        </g>
                        <g transform="matrix(0.451224,0,0,0.415192,611.139,831.325)">
                            <ellipse cx="935.201" cy="1369.67" rx="20.683" ry="22.478" style="fill:rgb(251,190,35);"/>
                        </g>
                    </g>
                </g>
                <g id="live-showy" serif:id="live showy" transform="matrix(1.70663,0,0,1.70663,-42.6511,-2769.94)">
                    <g transform="matrix(1,0,0,1,-88.3093,-99.2295)">
                        <path d="M491.955,1479.23C490.983,1479.23 490.132,1478.87 489.403,1478.14C488.674,1477.41 488.309,1476.56 488.309,1475.58L488.309,1404.86C488.309,1403.79 488.674,1402.91 489.403,1402.23C490.132,1401.55 490.983,1401.21 491.955,1401.21C493.025,1401.21 493.9,1401.55 494.58,1402.23C495.261,1402.91 495.601,1403.79 495.601,1404.86L495.601,1471.94L531.476,1471.94C532.545,1471.94 533.42,1472.28 534.101,1472.96C534.781,1473.64 535.122,1474.51 535.122,1475.58C535.122,1476.56 534.781,1477.41 534.101,1478.14C533.42,1478.87 532.545,1479.23 531.476,1479.23L491.955,1479.23Z" style="fill:white;fill-rule:nonzero;"/>
                    </g>
                    <g transform="matrix(1,0,0,1,-87.5801,-99.2295)">
                        <path d="M563.268,1475.58C563.268,1476.56 562.927,1477.41 562.247,1478.14C561.566,1478.87 560.691,1479.23 559.622,1479.23C558.65,1479.23 557.799,1478.87 557.07,1478.14C556.341,1477.41 555.976,1476.56 555.976,1475.58L555.976,1404.86C555.976,1403.79 556.341,1402.91 557.07,1402.23C557.799,1401.55 558.65,1401.21 559.622,1401.21C560.691,1401.21 561.566,1401.55 562.247,1402.23C562.927,1402.91 563.268,1403.79 563.268,1404.86L563.268,1475.58Z" style="fill:white;fill-rule:nonzero;"/>
                    </g>
                    <g transform="matrix(1,0,0,1,-88.3093,-99.2295)">
                        <path d="M621.018,1480.69C619.559,1480.69 618.344,1479.76 617.372,1477.92C616.205,1475.68 614.601,1472.4 612.559,1468.07C610.518,1463.75 608.257,1458.89 605.778,1453.49C603.299,1448.09 600.82,1442.62 598.341,1437.08C595.861,1431.54 593.625,1426.37 591.632,1421.55C589.639,1416.74 588.108,1412.83 587.038,1409.81C586.65,1408.74 586.309,1407.72 586.018,1406.75C585.726,1405.78 585.58,1405.1 585.58,1404.71C585.58,1403.83 585.872,1403.01 586.455,1402.23C587.038,1401.45 587.962,1401.06 589.226,1401.06C590.004,1401.06 590.733,1401.28 591.413,1401.72C592.094,1402.16 592.531,1402.76 592.726,1403.54C593.698,1406.65 595.059,1410.42 596.809,1414.84C598.559,1419.27 600.504,1423.96 602.643,1428.92C604.781,1433.88 606.969,1438.86 609.205,1443.87C611.441,1448.87 613.58,1453.54 615.622,1457.87C617.663,1462.19 619.462,1465.91 621.018,1469.02C622.962,1465.04 625.247,1460.25 627.872,1454.66C630.497,1449.07 633.146,1443.21 635.82,1437.08C638.493,1430.96 641.021,1424.98 643.403,1419.15C645.785,1413.31 647.705,1408.16 649.163,1403.69C649.747,1402.04 650.962,1401.21 652.809,1401.21C653.781,1401.21 654.608,1401.57 655.288,1402.3C655.969,1403.03 656.309,1403.93 656.309,1405C656.309,1405.29 656.188,1405.88 655.945,1406.75C655.702,1407.62 655.24,1408.99 654.559,1410.83C653.295,1414.14 651.667,1418.17 649.674,1422.94C647.681,1427.7 645.493,1432.81 643.111,1438.25C640.729,1443.69 638.323,1449.04 635.893,1454.29C633.462,1459.54 631.226,1464.31 629.184,1468.58C627.143,1472.86 625.49,1476.26 624.226,1478.79C623.643,1480.06 622.573,1480.69 621.018,1480.69Z" style="fill:white;fill-rule:nonzero;"/>
                    </g>
                    <g transform="matrix(1,0,0,1,-88.3093,-99.2295)">
                        <path d="M681.538,1479.23C680.566,1479.23 679.716,1478.87 678.986,1478.14C678.257,1477.41 677.893,1476.56 677.893,1475.58L677.893,1404.86C677.893,1403.88 678.209,1403.03 678.841,1402.3C679.472,1401.57 680.226,1401.21 681.101,1401.21L721.934,1401.21C723.004,1401.21 723.879,1401.55 724.559,1402.23C725.24,1402.91 725.58,1403.79 725.58,1404.86C725.58,1405.83 725.24,1406.68 724.559,1407.41C723.879,1408.14 723.004,1408.5 721.934,1408.5L685.184,1408.5L685.184,1433.88L715.663,1433.88C716.733,1433.88 717.608,1434.22 718.288,1434.9C718.969,1435.58 719.309,1436.45 719.309,1437.52C719.309,1438.49 718.969,1439.34 718.288,1440.07C717.608,1440.8 716.733,1441.17 715.663,1441.17L685.184,1441.17L685.184,1471.94L722.226,1471.94C723.295,1471.94 724.17,1472.28 724.851,1472.96C725.531,1473.64 725.872,1474.51 725.872,1475.58C725.872,1476.56 725.531,1477.41 724.851,1478.14C724.17,1478.87 723.295,1479.23 722.226,1479.23L681.538,1479.23Z" style="fill:white;fill-rule:nonzero;"/>
                    </g>
                    <g transform="matrix(1,0,0,1,19.7616,19.3121)">
                        <path d="M424.134,1410.83C421.801,1409.86 419.249,1409.08 416.478,1408.5C413.707,1407.92 410.086,1407.62 405.613,1407.62C400.655,1407.62 396.718,1408.87 393.801,1411.34C390.884,1413.82 389.426,1416.62 389.426,1419.73C389.426,1422.84 390.787,1425.66 393.509,1428.19C396.231,1430.72 401.53,1432.9 409.405,1434.75C416.405,1436.31 421.825,1438.3 425.666,1440.73C429.506,1443.16 432.204,1445.91 433.759,1448.97C435.315,1452.03 436.093,1455.41 436.093,1459.11C436.093,1462.7 435.193,1466.13 433.395,1469.39C431.596,1472.64 428.679,1475.32 424.645,1477.41C420.61,1479.5 415.238,1480.54 408.53,1480.54C399.002,1480.54 390.204,1478.31 382.134,1473.83C380.87,1473.06 380.238,1471.99 380.238,1470.62C380.238,1469.75 380.579,1468.92 381.259,1468.15C381.94,1467.37 382.815,1466.98 383.884,1466.98C384.468,1466.98 385.051,1467.12 385.634,1467.42C392.537,1471.31 400.169,1473.25 408.53,1473.25C415.141,1473.25 420.172,1471.87 423.624,1469.09C427.075,1466.32 428.801,1462.99 428.801,1459.11C428.801,1455.02 427.172,1451.62 423.916,1448.9C420.659,1446.17 415.336,1443.89 407.947,1442.04C401.044,1440.29 395.721,1438.3 391.978,1436.06C388.235,1433.83 385.659,1431.3 384.249,1428.48C382.839,1425.66 382.134,1422.55 382.134,1419.15C382.134,1416.04 383.034,1413.05 384.832,1410.18C386.631,1407.31 389.28,1404.95 392.78,1403.11C396.28,1401.26 400.558,1400.33 405.613,1400.33C410.961,1400.33 415.263,1400.75 418.52,1401.57C421.777,1402.4 425.204,1403.54 428.801,1405C430.356,1405.58 431.134,1406.7 431.134,1408.36C431.134,1409.33 430.77,1410.18 430.041,1410.91C429.311,1411.64 428.461,1412 427.488,1412C427.294,1412 427.002,1411.93 426.613,1411.78C426.225,1411.64 425.398,1411.32 424.134,1410.83Z" style="fill:white;fill-rule:nonzero;"/>
                    </g>
                    <g transform="matrix(1,0,0,1,15.6782,19.3121)">
                        <path d="M520.822,1479.23C519.85,1479.23 518.999,1478.87 518.27,1478.14C517.541,1477.41 517.176,1476.56 517.176,1475.58L517.176,1441.31L468.322,1441.31L468.322,1475.58C468.322,1476.56 467.981,1477.41 467.301,1478.14C466.62,1478.87 465.745,1479.23 464.676,1479.23C463.704,1479.23 462.853,1478.87 462.124,1478.14C461.395,1477.41 461.03,1476.56 461.03,1475.58L461.03,1404.86C461.03,1403.79 461.395,1402.91 462.124,1402.23C462.853,1401.55 463.704,1401.21 464.676,1401.21C465.745,1401.21 466.62,1401.55 467.301,1402.23C467.981,1402.91 468.322,1403.79 468.322,1404.86L468.322,1434.02L517.176,1434.02L517.176,1404.86C517.176,1403.79 517.541,1402.91 518.27,1402.23C518.999,1401.55 519.85,1401.21 520.822,1401.21C521.891,1401.21 522.766,1401.55 523.447,1402.23C524.127,1402.91 524.468,1403.79 524.468,1404.86L524.468,1475.58C524.468,1476.56 524.127,1477.41 523.447,1478.14C522.766,1478.87 521.891,1479.23 520.822,1479.23Z" style="fill:white;fill-rule:nonzero;"/>
                    </g>
                    <g transform="matrix(1,0,0,1,13.3449,19.3121)">
                        <path d="M585.718,1399.9C592.62,1399.9 598.916,1401.6 604.603,1405C610.291,1408.4 614.811,1413.14 618.166,1419.22C621.52,1425.3 623.197,1432.32 623.197,1440.29C623.197,1447.88 621.714,1454.7 618.749,1460.78C615.784,1466.86 611.506,1471.67 605.916,1475.22C600.325,1478.77 593.593,1480.54 585.718,1480.54C578.329,1480.54 571.766,1478.77 566.03,1475.22C560.294,1471.67 555.797,1466.88 552.541,1460.86C549.284,1454.83 547.655,1448.12 547.655,1440.73C547.655,1432.56 549.259,1425.42 552.468,1419.29C555.676,1413.17 560.124,1408.4 565.811,1405C571.499,1401.6 578.134,1399.9 585.718,1399.9ZM585.718,1407.19C579.593,1407.19 574.221,1408.62 569.603,1411.49C564.985,1414.36 561.388,1418.3 558.811,1423.3C556.235,1428.31 554.947,1434.12 554.947,1440.73C554.947,1446.66 556.235,1452.11 558.811,1457.06C561.388,1462.02 565.009,1465.96 569.676,1468.88C574.343,1471.79 579.69,1473.25 585.718,1473.25C592.134,1473.25 597.603,1471.79 602.124,1468.88C606.645,1465.96 610.072,1462 612.405,1456.99C614.738,1451.98 615.905,1446.42 615.905,1440.29C615.905,1433.88 614.568,1428.19 611.895,1423.23C609.221,1418.27 605.6,1414.36 601.03,1411.49C596.461,1408.62 591.356,1407.19 585.718,1407.19Z" style="fill:white;fill-rule:nonzero;"/>
                    </g>
                    <g transform="matrix(1,0,0,1,17.8657,19.3121)">
                        <path d="M722.218,1480.69C721.634,1480.69 721.002,1480.47 720.322,1480.03C719.641,1479.59 719.058,1478.84 718.572,1477.77C717.405,1475.44 715.85,1471.94 713.905,1467.27C711.961,1462.61 709.895,1457.33 707.707,1451.45C705.52,1445.57 703.332,1439.64 701.145,1433.66C698.957,1427.68 697.037,1422.21 695.384,1417.25C693.537,1422.6 691.495,1428.26 689.259,1434.24C687.023,1440.22 684.787,1446.1 682.551,1451.89C680.315,1457.67 678.249,1462.87 676.353,1467.49C674.457,1472.11 672.926,1475.73 671.759,1478.36C671.079,1479.81 669.912,1480.54 668.259,1480.54C667.287,1480.54 666.485,1480.23 665.853,1479.59C665.221,1478.96 664.759,1478.31 664.468,1477.62C663.495,1475.49 662.183,1472.25 660.53,1467.93C658.877,1463.6 657.079,1458.74 655.134,1453.34C653.19,1447.95 651.294,1442.5 649.447,1437.01C647.6,1431.52 645.922,1426.46 644.416,1421.84C642.909,1417.23 641.766,1413.56 640.988,1410.83C640.405,1408.79 640.016,1407.38 639.822,1406.61C639.627,1405.83 639.53,1405.29 639.53,1405C639.53,1404.03 639.895,1403.18 640.624,1402.45C641.353,1401.72 642.204,1401.36 643.176,1401.36C645.023,1401.36 646.19,1402.23 646.676,1403.98C647.745,1407.77 649.155,1412.46 650.905,1418.05C652.655,1423.64 654.575,1429.5 656.666,1435.62C658.756,1441.75 660.822,1447.63 662.863,1453.27C664.905,1458.91 666.704,1463.72 668.259,1467.71C670.009,1463.62 671.954,1458.86 674.093,1453.42C676.231,1447.97 678.419,1442.31 680.655,1436.43C682.891,1430.55 685.006,1424.81 686.999,1419.22C688.992,1413.63 690.62,1408.69 691.884,1404.42C692.37,1402.67 693.537,1401.79 695.384,1401.79C697.134,1401.79 698.495,1403.25 699.468,1406.17C700.731,1410.06 702.311,1414.72 704.207,1420.17C706.103,1425.61 708.12,1431.28 710.259,1437.16C712.398,1443.04 714.513,1448.68 716.603,1454.07C718.693,1459.47 720.516,1464.11 722.072,1468C723.725,1463.92 725.547,1459.13 727.541,1453.64C729.534,1448.14 731.551,1442.41 733.593,1436.43C735.634,1430.45 737.579,1424.64 739.426,1419C741.273,1413.36 742.829,1408.36 744.093,1403.98C744.579,1402.23 745.745,1401.36 747.593,1401.36C748.468,1401.36 749.294,1401.72 750.072,1402.45C750.85,1403.18 751.238,1404.03 751.238,1405C751.238,1405.39 750.995,1406.41 750.509,1408.06C749.44,1411.86 748.054,1416.3 746.353,1421.41C744.652,1426.51 742.853,1431.86 740.957,1437.45C739.061,1443.04 737.141,1448.51 735.197,1453.86C733.252,1459.2 731.454,1464.04 729.801,1468.37C728.148,1472.69 726.787,1476.07 725.718,1478.5C725.037,1479.96 723.87,1480.69 722.218,1480.69Z" style="fill:white;fill-rule:nonzero;"/>
                    </g>
                    <g transform="matrix(1,0,0,1,19.7616,19.3121)">
                        <path d="M804.03,1479.23C803.058,1479.23 802.207,1478.87 801.478,1478.14C800.749,1477.41 800.384,1476.56 800.384,1475.58L800.384,1451.08C798.731,1448.94 796.544,1445.93 793.822,1442.04C791.1,1438.15 788.256,1433.97 785.291,1429.5C782.325,1425.03 779.506,1420.75 776.832,1416.67C774.159,1412.58 772.093,1409.28 770.634,1406.75C770.343,1406.17 770.197,1405.54 770.197,1404.86C770.197,1403.98 770.488,1403.18 771.072,1402.45C771.655,1401.72 772.53,1401.36 773.697,1401.36C775.155,1401.36 776.176,1401.89 776.759,1402.96C778.12,1405.19 779.943,1408.09 782.228,1411.64C784.513,1415.18 786.992,1418.95 789.666,1422.94C792.339,1426.92 794.964,1430.76 797.541,1434.46C800.117,1438.15 802.329,1441.31 804.176,1443.94C806.218,1441.12 808.478,1437.84 810.957,1434.09C813.436,1430.35 815.94,1426.51 818.468,1422.57C820.995,1418.64 823.353,1414.94 825.541,1411.49C827.728,1408.04 829.454,1405.19 830.718,1402.96C831.301,1401.89 832.322,1401.36 833.78,1401.36C836.113,1401.36 837.28,1402.52 837.28,1404.86C837.28,1405.54 837.134,1406.17 836.843,1406.75C835.384,1409.18 833.416,1412.37 830.936,1416.3C828.457,1420.24 825.759,1424.42 822.843,1428.84C819.926,1433.27 817.131,1437.47 814.457,1441.46C811.784,1445.44 809.523,1448.75 807.676,1451.38L807.676,1475.58C807.676,1476.56 807.336,1477.41 806.655,1478.14C805.975,1478.87 805.1,1479.23 804.03,1479.23Z" style="fill:white;fill-rule:nonzero;"/>
                    </g>
                </g>
            </g>
        </g>
    </g>
</svg>
