<?xml version="1.0" encoding="UTF-8" standalone="no"?>
<!DOCTYPE svg PUBLIC "-//W3C//DTD SVG 1.1//EN" "http://www.w3.org/Graphics/SVG/1.1/DTD/svg11.dtd">
<svg width="100%" height="100%" class="fill-current p-2" viewBox="0 0 2967 833" version="1.1" xmlns="http://www.w3.org/2000/svg" xmlns:xlink="http://www.w3.org/1999/xlink" xml:space="preserve" xmlns:serif="http://www.serif.com/" style="fill-rule:evenodd;clip-rule:evenodd;stroke-linejoin:round;stroke-miterlimit:2;">
    <rect id="Artboard1" x="0" y="0" width="2966.12" height="832.413" style="fill:none;"/>
    <clipPath id="_clip1">
        <rect x="0" y="0" width="2966.12" height="832.413"/>
    </clipPath>
    <g clip-path="url(#_clip1)">
        <g id="dancing_nodes">
            <g id="lines">
                <path d="M53.268,426.276L2867.65,426.276C2874.9,426.276 2880.78,420.394 2880.78,413.149C2880.78,405.905 2874.9,400.023 2867.65,400.023L53.268,400.023C46.024,400.023 40.142,405.905 40.142,413.149C40.142,420.394 46.024,426.276 53.268,426.276Z"/>
                <path d="M2330.74,422.554L2417.02,338.543C2419.56,336.072 2420.99,332.68 2420.99,329.138C2420.99,325.596 2419.56,322.204 2417.02,319.733L2340.53,245.259C2340.53,245.259 2419.34,170.648 2419.34,170.648C2424.6,165.667 2424.83,157.351 2419.85,152.09C2414.87,146.829 2406.55,146.602 2401.29,151.583L2312.55,235.594C2309.96,238.051 2308.48,241.461 2308.45,245.035C2308.43,248.609 2309.86,252.038 2312.42,254.532L2389.04,329.138C2389.04,329.138 2312.42,403.744 2312.42,403.744C2307.23,408.799 2307.12,417.116 2312.17,422.307C2317.23,427.498 2325.54,427.609 2330.74,422.554Z"/>
                <path d="M2511.97,410.808L2482.91,250.487C2482.91,250.487 2581.81,171.365 2581.81,171.365C2584.93,168.874 2586.74,165.103 2586.74,161.115C2586.74,157.127 2584.93,153.356 2581.81,150.865L2476.8,66.853C2471.14,62.328 2462.87,63.246 2458.35,68.903C2453.82,74.561 2454.74,82.828 2460.4,87.354L2552.6,161.115C2552.6,161.115 2460.4,234.876 2460.4,234.876C2456.63,237.889 2454.82,242.723 2455.68,247.468L2486.14,415.491C2487.43,422.619 2494.26,427.358 2501.39,426.066C2508.52,424.774 2513.26,417.937 2511.97,410.808Z"/>
                <path d="M2628.74,413.149L2628.74,300.259C2628.74,300.259 2783.64,300.259 2783.64,300.259C2788.95,300.259 2793.74,297.061 2795.77,292.156C2797.8,287.251 2796.68,281.604 2792.92,277.85L2676.19,161.115C2676.19,161.115 2750.92,86.386 2750.92,86.386C2756.04,81.263 2756.04,72.945 2750.92,67.822C2745.79,62.699 2737.48,62.699 2732.35,67.822L2648.34,151.833C2643.22,156.959 2643.22,165.271 2648.34,170.397L2751.95,274.005C2751.95,274.006 2615.62,274.006 2615.62,274.006C2608.37,274.006 2602.49,279.883 2602.49,287.132L2602.49,413.149C2602.49,420.394 2608.37,426.276 2615.62,426.276C2622.86,426.276 2628.74,420.394 2628.74,413.149Z"/>
                <path d="M2435.14,408.998L2393.14,535.016C2391.8,539.019 2392.47,543.419 2394.94,546.842C2397.41,550.265 2401.37,552.293 2405.59,552.293L2512.83,552.293C2512.83,552.293 2435.27,764.538 2435.27,764.538C2432.78,771.342 2436.28,778.886 2443.09,781.373C2449.89,783.86 2457.44,780.354 2459.92,773.549L2543.93,543.673C2545.41,539.647 2544.82,535.157 2542.36,531.645C2539.91,528.132 2535.89,526.04 2531.61,526.04L2423.8,526.04C2423.8,526.04 2460.05,417.301 2460.05,417.301C2462.34,410.427 2458.62,402.987 2451.75,400.696C2444.87,398.405 2437.43,402.125 2435.14,408.998Z"/>
                <path d="M2561.87,419.02L2642.95,581.172C2642.95,581.172 2603.88,659.313 2603.88,659.313C2601.35,664.367 2602.34,670.471 2606.34,674.466L2690.35,758.477C2695.47,763.6 2703.79,763.6 2708.91,758.477C2714.03,753.354 2714.03,745.036 2708.91,739.913L2631.59,662.592C2631.59,662.592 2669.36,587.043 2669.36,587.043C2671.21,583.347 2671.21,578.997 2669.36,575.302L2585.35,407.279C2582.11,400.799 2574.22,398.169 2567.74,401.409C2561.26,404.649 2558.63,412.54 2561.87,419.02Z"/>
                <path d="M2628.08,423.116L2767.32,542.463C2767.32,542.463 2729.89,617.308 2729.89,617.308C2727.6,621.893 2728.19,627.393 2731.39,631.392C2734.6,635.391 2739.85,637.156 2744.82,635.913L2912.84,593.907C2919.87,592.15 2924.15,585.017 2922.39,577.989C2920.64,570.96 2913.5,566.68 2906.47,568.438L2766.14,603.521C2766.14,603.521 2795.38,545.037 2795.38,545.037C2798.08,539.65 2796.76,533.12 2792.18,529.2L2645.16,403.183C2639.66,398.468 2631.37,399.106 2626.65,404.607C2621.94,410.107 2622.58,418.401 2628.08,423.116Z"/>
            </g>
            <g class="text-violet-500 dark:text-violet-400" id="nodules">
                <circle cx="40.142" cy="413.149" r="39.203" class="text-violet-500 dark:text-violet-400"/>
                <circle cx="2751.96" cy="63.979" r="39.203" class="text-lime-500 dark:text-lime-400"/>
                <circle cx="2450.4" cy="63.979" r="39.203" class="text-yellow-500 dark:text-yellow-400"/>
                <circle cx="2423.44" cy="158.313" r="39.203" class="text-sky-500 dark:text-sky-400"/>
                <circle cx="2444.79" cy="794.003" r="39.203" class="text-fuchsia-500 dark:text-fuchsia-400"/>
                <circle cx="2702.43" cy="767.396" r="39.203" class="text-teal-500 dark:text-teal-400"/>
                <circle cx="2927.86" cy="583.975" r="39.203" class="text-green-500 dark:text-green-400"/>
                <circle cx="2880.78" cy="413.149" r="39.203" class="text-amber-500 dark:text-amber-400"/>
            </g>
        </g>
        <g id="live-showy" serif:id="live showy">
            <path d="M236.606,329.138C232.522,329.138 228.949,327.607 225.886,324.544C222.823,321.481 221.291,317.907 221.291,313.823L221.291,16.72C221.291,12.228 222.823,8.553 225.886,5.694C228.949,2.835 232.522,1.406 236.606,1.406C241.098,1.406 244.774,2.835 247.632,5.694C250.491,8.553 251.921,12.228 251.921,16.72L251.921,298.509L402.616,298.509C407.108,298.509 410.784,299.938 413.643,302.797C416.501,305.656 417.931,309.331 417.931,313.823C417.931,317.907 416.501,321.481 413.643,324.544C410.784,327.607 407.108,329.138 402.616,329.138L236.606,329.138Z" style="fill-rule:nonzero;"/>
            <path d="M539.222,313.823C539.222,317.907 537.793,321.481 534.934,324.544C532.075,327.607 528.4,329.138 523.908,329.138C519.824,329.138 516.25,327.607 513.187,324.544C510.124,321.481 508.593,317.907 508.593,313.823L508.593,16.72C508.593,12.228 510.124,8.553 513.187,5.694C516.25,2.835 519.824,1.406 523.908,1.406C528.4,1.406 532.075,2.835 534.934,5.694C537.793,8.553 539.222,12.228 539.222,16.72L539.222,313.823Z" style="fill-rule:nonzero;"/>
            <path d="M778.742,335.264C772.616,335.264 767.512,331.384 763.428,323.625C758.527,314.232 751.789,300.449 743.212,282.275C734.636,264.102 725.141,243.683 714.727,221.017C704.313,198.351 693.899,175.38 683.486,152.101C673.072,128.823 663.679,107.077 655.307,86.861C646.935,66.646 640.503,50.208 636.01,37.548C634.377,33.056 632.947,28.768 631.722,24.684C630.497,20.6 629.885,17.741 629.885,16.108C629.885,12.432 631.11,8.961 633.56,5.694C636.01,2.427 639.89,0.793 645.199,0.793C648.466,0.793 651.529,1.712 654.388,3.55C657.247,5.388 659.084,7.94 659.901,11.207C663.985,24.276 669.702,40.101 677.053,58.682C684.404,77.264 692.572,96.969 701.557,117.797C710.541,138.625 719.73,159.554 729.123,180.587C738.516,201.619 747.501,221.221 756.077,239.395C764.653,257.568 772.208,273.189 778.742,286.257C786.91,269.513 796.507,249.4 807.534,225.918C818.56,202.435 829.689,177.83 840.92,152.101C852.15,126.373 862.768,101.257 872.774,76.754C882.779,52.25 890.845,30.606 896.971,11.82C899.421,4.877 904.526,1.406 912.286,1.406C916.369,1.406 919.841,2.937 922.699,6C925.558,9.063 926.988,12.841 926.988,17.333C926.988,18.558 926.477,21.009 925.456,24.684C924.435,28.36 922.495,34.077 919.637,41.836C914.327,55.722 907.487,72.67 899.115,92.681C890.743,112.692 881.554,134.132 871.549,157.002C861.543,179.872 851.436,202.333 841.226,224.386C831.016,246.439 821.623,266.45 813.047,284.419C804.471,302.389 797.528,316.682 792.219,327.3C789.769,332.609 785.277,335.264 778.742,335.264Z" style="fill-rule:nonzero;"/>
            <path d="M1032.96,329.138C1028.88,329.138 1025.31,327.607 1022.24,324.544C1019.18,321.481 1017.65,317.907 1017.65,313.823L1017.65,16.72C1017.65,12.637 1018.98,9.063 1021.63,6C1024.29,2.937 1027.45,1.406 1031.13,1.406L1202.65,1.406C1207.14,1.406 1210.82,2.835 1213.68,5.694C1216.54,8.553 1217.96,12.228 1217.96,16.72C1217.96,20.804 1216.54,24.378 1213.68,27.441C1210.82,30.504 1207.14,32.035 1202.65,32.035L1048.28,32.035L1048.28,138.625L1176.31,138.625C1180.8,138.625 1184.48,140.054 1187.34,142.913C1190.19,145.771 1191.62,149.447 1191.62,153.939C1191.62,158.023 1190.19,161.596 1187.34,164.659C1184.48,167.722 1180.8,169.254 1176.31,169.254L1048.28,169.254L1048.28,298.509L1203.88,298.509C1208.37,298.509 1212.04,299.938 1214.9,302.797C1217.76,305.656 1219.19,309.331 1219.19,313.823C1219.19,317.907 1217.76,321.481 1214.9,324.544C1212.04,327.607 1208.37,329.138 1203.88,329.138L1032.96,329.138Z" style="fill-rule:nonzero;"/>
            <path d="M405.679,539.779C395.878,535.695 385.157,532.428 373.518,529.978C361.879,527.528 346.667,526.302 327.881,526.302C307.053,526.302 290.513,531.509 278.262,541.923C266.01,552.337 259.884,564.078 259.884,577.147C259.884,590.215 265.602,602.059 277.036,612.677C288.471,623.295 310.729,632.484 343.808,640.243C373.212,646.777 395.98,655.149 412.111,665.359C428.242,675.569 439.575,687.106 446.109,699.97C452.644,712.834 455.911,727.026 455.911,742.544C455.911,757.655 452.133,772.05 444.578,785.732C437.023,799.413 424.771,810.643 407.823,819.424C390.875,828.204 368.311,832.594 340.133,832.594C300.11,832.594 263.151,823.201 229.255,804.415C223.946,801.148 221.291,796.656 221.291,790.938C221.291,787.263 222.721,783.792 225.579,780.525C228.438,777.257 232.114,775.624 236.606,775.624C239.056,775.624 241.507,776.236 243.957,777.462C272.953,793.797 305.011,801.965 340.133,801.965C367.903,801.965 389.037,796.145 403.535,784.506C418.033,772.867 425.282,758.88 425.282,742.544C425.282,725.392 418.441,711.098 404.76,699.664C391.079,688.229 368.72,678.631 337.682,670.872C308.687,663.521 286.327,655.149 270.604,645.756C254.881,636.363 244.059,625.745 238.137,613.902C232.216,602.059 229.255,588.99 229.255,574.696C229.255,561.628 233.033,549.07 240.588,537.023C248.143,524.975 259.272,515.072 273.974,507.312C288.676,499.553 306.645,495.673 327.881,495.673C350.342,495.673 368.413,497.409 382.094,500.88C395.776,504.351 410.171,509.15 425.282,515.276C431.816,517.726 435.083,522.423 435.083,529.365C435.083,533.449 433.552,537.023 430.489,540.086C427.426,543.148 423.852,544.68 419.768,544.68C418.952,544.68 417.726,544.374 416.093,543.761C414.459,543.148 410.988,541.821 405.679,539.779Z" style="fill-rule:nonzero;"/>
            <path d="M794.669,827.081C790.586,827.081 787.012,825.549 783.949,822.487C780.886,819.424 779.355,815.85 779.355,811.766L779.355,667.809L574.139,667.809L574.139,811.766C574.139,815.85 572.71,819.424 569.851,822.487C566.993,825.549 563.317,827.081 558.825,827.081C554.741,827.081 551.168,825.549 548.105,822.487C545.042,819.424 543.51,815.85 543.51,811.766L543.51,514.663C543.51,510.171 545.042,506.496 548.105,503.637C551.168,500.778 554.741,499.349 558.825,499.349C563.317,499.349 566.993,500.778 569.851,503.637C572.71,506.496 574.139,510.171 574.139,514.663L574.139,637.18L779.355,637.18L779.355,514.663C779.355,510.171 780.886,506.496 783.949,503.637C787.012,500.778 790.586,499.349 794.669,499.349C799.162,499.349 802.837,500.778 805.696,503.637C808.555,506.496 809.984,510.171 809.984,514.663L809.984,811.766C809.984,815.85 808.555,819.424 805.696,822.487C802.837,825.549 799.162,827.081 794.669,827.081Z" style="fill-rule:nonzero;"/>
            <path d="M1057.47,493.835C1086.46,493.835 1112.91,500.982 1136.8,515.276C1160.69,529.57 1179.68,549.478 1193.77,575.003C1207.86,600.527 1214.9,630.033 1214.9,663.521C1214.9,695.375 1208.67,724.065 1196.22,749.589C1183.76,775.113 1165.79,795.329 1142.31,810.235C1118.83,825.141 1090.55,832.594 1057.47,832.594C1026.43,832.594 998.864,825.141 974.769,810.235C950.674,795.329 931.786,775.215 918.105,749.895C904.424,724.575 897.584,696.396 897.584,665.359C897.584,631.054 904.322,601.038 917.799,575.309C931.276,549.581 949.959,529.57 973.85,515.276C997.741,500.982 1025.61,493.835 1057.47,493.835ZM1057.47,524.465C1031.74,524.465 1009.18,530.488 989.777,542.536C970.379,554.583 955.268,571.123 944.446,592.155C933.624,613.187 928.213,637.588 928.213,665.359C928.213,690.271 933.624,713.14 944.446,733.968C955.268,754.796 970.481,771.336 990.084,783.587C1009.69,795.839 1032.15,801.965 1057.47,801.965C1084.42,801.965 1107.39,795.839 1126.38,783.587C1145.37,771.336 1159.77,754.694 1169.57,733.662C1179.37,712.63 1184.27,689.25 1184.27,663.521C1184.27,636.567 1178.66,612.677 1167.43,591.849C1156.2,571.021 1140.98,554.583 1121.79,542.536C1102.6,530.488 1081.15,524.465 1057.47,524.465Z" style="fill-rule:nonzero;"/>
            <path d="M1649.84,833.207C1647.39,833.207 1644.73,832.288 1641.87,830.45C1639.01,828.612 1636.56,825.447 1634.52,820.955C1629.62,811.154 1623.09,796.452 1614.92,776.849C1606.75,757.246 1598.07,735.091 1588.88,710.384C1579.69,685.676 1570.51,660.764 1561.32,635.649C1552.13,610.533 1544.06,587.561 1537.12,566.733C1529.36,589.194 1520.79,612.983 1511.39,638.099C1502,663.215 1492.61,687.922 1483.21,712.221C1473.82,736.521 1465.14,758.369 1457.18,777.768C1449.21,797.166 1442.78,812.379 1437.88,823.405C1435.02,829.531 1430.12,832.594 1423.18,832.594C1419.1,832.594 1415.73,831.267 1413.07,828.612C1410.42,825.958 1408.48,823.201 1407.25,820.342C1403.17,811.358 1397.66,797.779 1390.71,779.606C1383.77,761.432 1376.21,741.013 1368.05,718.347C1359.88,695.682 1351.92,672.812 1344.16,649.738C1336.4,626.664 1329.35,605.428 1323.02,586.029C1316.69,566.631 1311.89,551.214 1308.63,539.779C1306.18,531.203 1304.54,525.281 1303.73,522.014C1302.91,518.747 1302.5,516.501 1302.5,515.276C1302.5,511.192 1304.03,507.619 1307.1,504.556C1310.16,501.493 1313.73,499.961 1317.82,499.961C1325.58,499.961 1330.48,503.637 1332.52,510.988C1337.01,526.915 1342.93,546.62 1350.28,570.102C1357.63,593.584 1365.7,618.19 1374.48,643.918C1383.26,669.647 1391.94,694.354 1400.52,718.041C1409.09,741.728 1416.65,761.943 1423.18,778.687C1430.53,761.534 1438.7,741.523 1447.68,718.654C1456.67,695.784 1465.86,671.995 1475.25,647.288C1484.64,622.58 1493.53,598.485 1501.9,575.003C1510.27,551.52 1517.11,530.795 1522.42,512.826C1524.46,505.475 1529.36,501.799 1537.12,501.799C1544.47,501.799 1550.19,507.925 1554.27,520.177C1559.58,536.512 1566.22,556.115 1574.18,578.985C1582.15,601.854 1590.62,625.643 1599.6,650.351C1608.59,675.058 1617.47,698.745 1626.25,721.41C1635.03,744.076 1642.69,763.576 1649.22,779.912C1656.17,762.76 1663.82,742.646 1672.19,719.572C1680.57,696.499 1689.04,672.404 1697.62,647.288C1706.19,622.172 1714.36,597.77 1722.12,574.084C1729.88,550.397 1736.41,529.365 1741.72,510.988C1743.77,503.637 1748.67,499.961 1756.43,499.961C1760.1,499.961 1763.57,501.493 1766.84,504.556C1770.11,507.619 1771.74,511.192 1771.74,515.276C1771.74,516.909 1770.72,521.198 1768.68,528.14C1764.18,544.067 1758.37,562.751 1751.22,584.192C1744.07,605.632 1736.52,628.093 1728.55,651.576C1720.59,675.058 1712.52,698.03 1704.36,720.491C1696.19,742.953 1688.63,763.27 1681.69,781.443C1674.75,799.617 1669.03,813.808 1664.54,824.018C1661.68,830.144 1656.78,833.207 1649.84,833.207Z" style="fill-rule:nonzero;"/>
            <path d="M2001.46,827.081C1997.38,827.081 1993.8,825.549 1990.74,822.487C1987.68,819.424 1986.14,815.85 1986.14,811.766L1986.14,708.852C1979.2,699.868 1970.01,687.208 1958.58,670.872C1947.14,654.537 1935.2,636.976 1922.74,618.19C1910.29,599.404 1898.44,581.435 1887.21,564.283C1875.98,547.13 1867.3,533.245 1861.18,522.627C1859.95,520.177 1859.34,517.522 1859.34,514.663C1859.34,510.988 1860.57,507.619 1863.02,504.556C1865.47,501.493 1869.14,499.961 1874.04,499.961C1880.17,499.961 1884.46,502.207 1886.91,506.7C1892.62,516.093 1900.28,528.242 1909.88,543.148C1919.48,558.055 1929.89,573.88 1941.12,590.624C1952.35,607.368 1963.38,623.499 1974.2,639.018C1985.02,654.537 1994.31,667.809 2002.07,678.836C2010.65,666.992 2020.14,653.209 2030.56,637.486C2040.97,621.763 2051.49,605.632 2062.11,589.092C2072.72,572.552 2082.63,557.034 2091.82,542.536C2101,528.038 2108.25,516.093 2113.56,506.7C2116.01,502.207 2120.3,499.961 2126.43,499.961C2136.23,499.961 2141.13,504.862 2141.13,514.663C2141.13,517.522 2140.51,520.177 2139.29,522.627C2133.16,532.837 2124.89,546.211 2114.48,562.751C2104.07,579.291 2092.73,596.852 2080.48,615.433C2068.23,634.015 2056.49,651.678 2045.26,668.422C2034.03,685.166 2024.53,699.051 2016.77,710.077L2016.77,811.766C2016.77,815.85 2015.34,819.424 2012.49,822.487C2009.63,825.549 2005.95,827.081 2001.46,827.081Z" style="fill-rule:nonzero;"/>
        </g>
    </g>
</svg>
